<svg xmlns="http://www.w3.org/2000/svg" xmlns:xlink="http://www.w3.org/1999/xlink" width="221" zoomAndPan="magnify" viewBox="0 0 165.75 80.249996" height="107" preserveAspectRatio="xMidYMid meet" version="1.0"><defs><g/><clipPath id="197230ec50"><path d="M 117 20 L 155 20 L 155 53 L 117 53 Z M 117 20 " clip-rule="nonzero"/></clipPath><clipPath id="28cc10a67d"><path d="M 119.542969 17.847656 L 154.339844 20.832031 L 151.289062 56.371094 L 116.492188 53.382812 Z M 119.542969 17.847656 " clip-rule="nonzero"/></clipPath><clipPath id="f1a84a9d9d"><path d="M 119.542969 17.847656 L 154.339844 20.832031 L 151.289062 56.371094 L 116.492188 53.382812 Z M 119.542969 17.847656 " clip-rule="nonzero"/></clipPath><clipPath id="14f75cb791"><path d="M 119.542969 17.847656 L 154.339844 20.832031 L 151.289062 56.371094 L 116.492188 53.382812 Z M 119.542969 17.847656 " clip-rule="nonzero"/></clipPath><clipPath id="563f78dcd1"><path d="M 138 20 L 155 20 L 155 35 L 138 35 Z M 138 20 " clip-rule="nonzero"/></clipPath><clipPath id="3181683f2b"><path d="M 119.542969 17.847656 L 154.339844 20.832031 L 151.289062 56.371094 L 116.492188 53.382812 Z M 119.542969 17.847656 " clip-rule="nonzero"/></clipPath><clipPath id="431cb13744"><path d="M 119.542969 17.847656 L 154.339844 20.832031 L 151.289062 56.371094 L 116.492188 53.382812 Z M 119.542969 17.847656 " clip-rule="nonzero"/></clipPath><clipPath id="ef38b885c3"><path d="M 119.542969 17.847656 L 154.339844 20.832031 L 151.289062 56.371094 L 116.492188 53.382812 Z M 119.542969 17.847656 " clip-rule="nonzero"/></clipPath><clipPath id="c58813eadc"><path d="M 116 25 L 153 25 L 153 54 L 116 54 Z M 116 25 " clip-rule="nonzero"/></clipPath><clipPath id="aa6bff8716"><path d="M 119.542969 17.847656 L 154.339844 20.832031 L 151.289062 56.371094 L 116.492188 53.382812 Z M 119.542969 17.847656 " clip-rule="nonzero"/></clipPath><clipPath id="ae27b2b231"><path d="M 119.542969 17.847656 L 154.339844 20.832031 L 151.289062 56.371094 L 116.492188 53.382812 Z M 119.542969 17.847656 " clip-rule="nonzero"/></clipPath><clipPath id="068ca15e26"><path d="M 119.542969 17.847656 L 154.339844 20.832031 L 151.289062 56.371094 L 116.492188 53.382812 Z M 119.542969 17.847656 " clip-rule="nonzero"/></clipPath></defs><g fill="#ffffff" fill-opacity="1"><g transform="translate(33.211158, 52.585508)"><g><path d="M 16.265625 -9.078125 C 16.265625 -7.703125 16 -6.457031 15.46875 -5.34375 C 14.945312 -4.226562 14.238281 -3.265625 13.34375 -2.453125 C 12.457031 -1.648438 11.40625 -1.023438 10.1875 -0.578125 C 8.976562 -0.140625 7.675781 0.078125 6.28125 0.078125 C 5.300781 0.078125 4.320312 -0.179688 3.34375 -0.703125 C 2.363281 -1.234375 1.421875 -2.078125 0.515625 -3.234375 L 3.234375 -8.5625 C 3.398438 -8.238281 3.65625 -7.910156 4 -7.578125 C 4.34375 -7.253906 4.726562 -6.96875 5.15625 -6.71875 C 5.582031 -6.476562 6.007812 -6.273438 6.4375 -6.109375 C 6.875 -5.953125 7.265625 -5.875 7.609375 -5.875 C 7.898438 -5.875 8.203125 -5.921875 8.515625 -6.015625 C 8.835938 -6.117188 9.132812 -6.269531 9.40625 -6.46875 C 9.675781 -6.664062 9.890625 -6.890625 10.046875 -7.140625 C 10.203125 -7.398438 10.28125 -7.703125 10.28125 -8.046875 C 10.28125 -8.628906 10.085938 -9.171875 9.703125 -9.671875 C 9.328125 -10.179688 8.859375 -10.660156 8.296875 -11.109375 C 7.734375 -11.566406 7.117188 -12.023438 6.453125 -12.484375 C 5.796875 -12.953125 5.191406 -13.441406 4.640625 -13.953125 C 4.097656 -14.472656 3.628906 -15.050781 3.234375 -15.6875 C 2.835938 -16.320312 2.640625 -17.03125 2.640625 -17.8125 C 2.640625 -19.082031 3.019531 -20.269531 3.78125 -21.375 C 4.539062 -22.476562 5.488281 -23.425781 6.625 -24.21875 C 7.769531 -25.019531 9.015625 -25.648438 10.359375 -26.109375 C 11.703125 -26.578125 12.972656 -26.8125 14.171875 -26.8125 C 14.835938 -26.8125 15.460938 -26.734375 16.046875 -26.578125 C 16.640625 -26.421875 17.148438 -26.160156 17.578125 -25.796875 C 18.003906 -25.441406 18.34375 -24.992188 18.59375 -24.453125 C 18.851562 -23.921875 18.984375 -23.25 18.984375 -22.4375 C 18.984375 -22.101562 18.953125 -21.765625 18.890625 -21.421875 C 18.835938 -21.078125 18.785156 -20.707031 18.734375 -20.3125 L 13.40625 -18.765625 C 13.457031 -18.960938 13.5 -19.160156 13.53125 -19.359375 C 13.570312 -19.554688 13.59375 -19.753906 13.59375 -19.953125 C 13.59375 -20.679688 13.460938 -21.210938 13.203125 -21.546875 C 12.941406 -21.878906 12.609375 -22.046875 12.203125 -22.046875 C 12.003906 -22.046875 11.765625 -21.96875 11.484375 -21.8125 C 11.203125 -21.664062 10.921875 -21.476562 10.640625 -21.25 C 10.359375 -21.019531 10.117188 -20.742188 9.921875 -20.421875 C 9.722656 -20.109375 9.625 -19.765625 9.625 -19.390625 C 9.625 -18.804688 9.785156 -18.316406 10.109375 -17.921875 C 10.441406 -17.535156 10.851562 -17.171875 11.34375 -16.828125 C 11.832031 -16.484375 12.363281 -16.132812 12.9375 -15.78125 C 13.519531 -15.425781 14.054688 -14.96875 14.546875 -14.40625 C 15.035156 -13.84375 15.441406 -13.132812 15.765625 -12.28125 C 16.097656 -11.4375 16.265625 -10.367188 16.265625 -9.078125 Z M 16.265625 -9.078125 "/></g></g></g><g fill="#ffffff" fill-opacity="1"><g transform="translate(49.007131, 52.585508)"><g><path d="M 0.296875 0.03125 L 5.109375 -26.078125 L 16.71875 -27.078125 C 16.539062 -26.535156 16.390625 -25.984375 16.265625 -25.421875 C 16.148438 -24.953125 16.035156 -24.46875 15.921875 -23.96875 C 15.816406 -23.46875 15.726562 -23.019531 15.65625 -22.625 C 15.40625 -22.601562 15.050781 -22.585938 14.59375 -22.578125 C 14.144531 -22.566406 13.660156 -22.550781 13.140625 -22.53125 C 12.628906 -22.519531 12.109375 -22.515625 11.578125 -22.515625 C 11.054688 -22.515625 10.601562 -22.515625 10.21875 -22.515625 L 8.921875 -15.9375 C 9.679688 -15.988281 10.394531 -16.023438 11.0625 -16.046875 C 11.59375 -16.078125 12.140625 -16.09375 12.703125 -16.09375 C 13.273438 -16.09375 13.691406 -16.101562 13.953125 -16.125 C 13.859375 -15.4375 13.769531 -14.757812 13.6875 -14.09375 C 13.601562 -13.4375 13.5 -12.765625 13.375 -12.078125 C 13.125 -12.054688 12.722656 -12.039062 12.171875 -12.03125 C 11.617188 -12.019531 11.0625 -12 10.5 -11.96875 C 9.863281 -11.945312 9.164062 -11.925781 8.40625 -11.90625 L 7.15625 -5.140625 L 12.53125 -5.984375 L 12.15625 -1.796875 Z M 0.296875 0.03125 "/></g></g></g><g fill="#ffffff" fill-opacity="1"><g transform="translate(61.533709, 52.585508)"><g><path d="M 15.6875 -7.890625 C 15.09375 -6.546875 14.4375 -5.378906 13.71875 -4.390625 C 13 -3.398438 12.238281 -2.566406 11.4375 -1.890625 C 10.644531 -1.210938 9.84375 -0.710938 9.03125 -0.390625 C 8.226562 -0.078125 7.445312 0.078125 6.6875 0.078125 C 5.925781 0.078125 5.234375 -0.09375 4.609375 -0.4375 C 3.984375 -0.78125 3.4375 -1.296875 2.96875 -1.984375 C 2.507812 -2.671875 2.140625 -3.515625 1.859375 -4.515625 C 1.578125 -5.523438 1.4375 -6.703125 1.4375 -8.046875 C 1.4375 -10.347656 1.753906 -12.617188 2.390625 -14.859375 C 3.023438 -17.097656 3.914062 -19.109375 5.0625 -20.890625 C 6.21875 -22.679688 7.582031 -24.125 9.15625 -25.21875 C 10.738281 -26.3125 12.488281 -26.859375 14.40625 -26.859375 C 14.988281 -26.859375 15.546875 -26.734375 16.078125 -26.484375 C 16.617188 -26.242188 17.085938 -25.898438 17.484375 -25.453125 C 17.878906 -25.015625 18.191406 -24.476562 18.421875 -23.84375 C 18.648438 -23.207031 18.765625 -22.492188 18.765625 -21.703125 C 18.765625 -21.554688 18.765625 -21.40625 18.765625 -21.25 C 18.765625 -21.09375 18.753906 -20.925781 18.734375 -20.75 L 13.921875 -19.46875 C 13.628906 -20.082031 13.285156 -20.390625 12.890625 -20.390625 C 12.503906 -20.390625 12.09375 -20.160156 11.65625 -19.703125 C 11.226562 -19.253906 10.804688 -18.664062 10.390625 -17.9375 C 9.972656 -17.21875 9.566406 -16.410156 9.171875 -15.515625 C 8.785156 -14.617188 8.445312 -13.71875 8.15625 -12.8125 C 7.863281 -11.914062 7.625 -11.054688 7.4375 -10.234375 C 7.25 -9.410156 7.15625 -8.742188 7.15625 -8.234375 C 7.15625 -7.441406 7.257812 -6.882812 7.46875 -6.5625 C 7.675781 -6.25 7.953125 -6.09375 8.296875 -6.09375 C 8.566406 -6.09375 8.875 -6.195312 9.21875 -6.40625 C 9.5625 -6.613281 9.878906 -6.882812 10.171875 -7.21875 C 10.460938 -7.550781 10.726562 -7.925781 10.96875 -8.34375 C 11.21875 -8.757812 11.394531 -9.175781 11.5 -9.59375 Z M 15.6875 -7.890625 "/></g></g></g><g fill="#ffffff" fill-opacity="1"><g transform="translate(76.741924, 52.585508)"><g><path d="M 15.28125 -7.15625 C 14.9375 -5.757812 14.453125 -4.570312 13.828125 -3.59375 C 13.203125 -2.613281 12.46875 -1.804688 11.625 -1.171875 C 10.78125 -0.535156 9.878906 -0.0703125 8.921875 0.21875 C 7.972656 0.507812 7.019531 0.65625 6.0625 0.65625 C 5.5 0.65625 4.921875 0.5625 4.328125 0.375 C 3.742188 0.195312 3.21875 -0.0703125 2.75 -0.4375 C 2.289062 -0.800781 1.90625 -1.265625 1.59375 -1.828125 C 1.289062 -2.398438 1.140625 -3.066406 1.140625 -3.828125 C 1.140625 -3.921875 1.140625 -4.015625 1.140625 -4.109375 C 1.140625 -4.210938 1.148438 -4.3125 1.171875 -4.40625 C 1.273438 -5.414062 1.4375 -6.628906 1.65625 -8.046875 C 1.875 -9.460938 2.101562 -10.941406 2.34375 -12.484375 C 2.59375 -14.023438 2.863281 -15.570312 3.15625 -17.125 C 3.445312 -18.6875 3.707031 -20.101562 3.9375 -21.375 C 4.175781 -22.65625 4.378906 -23.71875 4.546875 -24.5625 C 4.722656 -25.40625 4.835938 -25.925781 4.890625 -26.125 C 5.398438 -26.164062 6.007812 -26.222656 6.71875 -26.296875 C 7.425781 -26.367188 8.085938 -26.429688 8.703125 -26.484375 C 9.460938 -26.554688 10.210938 -26.628906 10.953125 -26.703125 C 10.304688 -23.742188 9.738281 -21.0625 9.25 -18.65625 C 9.03125 -17.632812 8.816406 -16.609375 8.609375 -15.578125 C 8.398438 -14.546875 8.203125 -13.601562 8.015625 -12.75 C 7.835938 -11.894531 7.679688 -11.15625 7.546875 -10.53125 C 7.410156 -9.90625 7.300781 -9.394531 7.21875 -9 C 7.132812 -8.601562 7.035156 -8.101562 6.921875 -7.5 C 6.816406 -6.90625 6.765625 -6.363281 6.765625 -5.875 C 6.765625 -5.488281 6.859375 -5.164062 7.046875 -4.90625 C 7.242188 -4.644531 7.488281 -4.515625 7.78125 -4.515625 C 8.195312 -4.515625 8.539062 -4.679688 8.8125 -5.015625 C 9.082031 -5.347656 9.304688 -5.742188 9.484375 -6.203125 C 9.671875 -6.671875 9.804688 -7.144531 9.890625 -7.625 C 9.984375 -8.101562 10.066406 -8.476562 10.140625 -8.75 C 10.285156 -9.457031 10.445312 -10.242188 10.625 -11.109375 C 10.8125 -11.984375 11 -12.890625 11.1875 -13.828125 C 11.375 -14.773438 11.554688 -15.738281 11.734375 -16.71875 C 11.921875 -17.695312 12.097656 -18.648438 12.265625 -19.578125 C 12.679688 -21.734375 13.085938 -23.960938 13.484375 -26.265625 L 19.0625 -26.625 C 19.0625 -26.625 19 -26.304688 18.875 -25.671875 C 18.757812 -25.035156 18.601562 -24.191406 18.40625 -23.140625 C 18.207031 -22.085938 17.988281 -20.882812 17.75 -19.53125 C 17.519531 -18.1875 17.257812 -16.785156 16.96875 -15.328125 C 16.675781 -13.878906 16.390625 -12.445312 16.109375 -11.03125 C 15.828125 -9.625 15.550781 -8.332031 15.28125 -7.15625 Z M 15.28125 -7.15625 "/></g></g></g><g fill="#ffffff" fill-opacity="1"><g transform="translate(92.133817, 52.585508)"><g><path d="M 0.140625 0.03125 C 0.804688 -3.21875 1.445312 -6.398438 2.0625 -9.515625 C 2.28125 -10.835938 2.523438 -12.210938 2.796875 -13.640625 C 3.066406 -15.078125 3.316406 -16.5 3.546875 -17.90625 C 3.773438 -19.3125 3.992188 -20.671875 4.203125 -21.984375 C 4.410156 -23.296875 4.578125 -24.488281 4.703125 -25.5625 C 6.097656 -26.007812 7.601562 -26.335938 9.21875 -26.546875 C 10.832031 -26.753906 12.4375 -26.859375 14.03125 -26.859375 C 14.988281 -26.859375 15.78125 -26.742188 16.40625 -26.515625 C 17.03125 -26.296875 17.519531 -25.984375 17.875 -25.578125 C 18.226562 -25.179688 18.476562 -24.710938 18.625 -24.171875 C 18.769531 -23.628906 18.84375 -23.03125 18.84375 -22.375 C 18.84375 -21.394531 18.671875 -20.429688 18.328125 -19.484375 C 17.984375 -18.546875 17.523438 -17.648438 16.953125 -16.796875 C 16.378906 -15.953125 15.71875 -15.179688 14.96875 -14.484375 C 14.21875 -13.785156 13.414062 -13.21875 12.5625 -12.78125 C 13 -11.800781 13.46875 -10.726562 13.96875 -9.5625 C 14.476562 -8.40625 14.953125 -7.300781 15.390625 -6.25 C 15.878906 -5.019531 16.378906 -3.796875 16.890625 -2.578125 L 11.203125 -0.59375 C 10.710938 -2.15625 10.269531 -3.625 9.875 -5 C 9.707031 -5.5625 9.535156 -6.140625 9.359375 -6.734375 C 9.191406 -7.335938 9.035156 -7.90625 8.890625 -8.4375 C 8.742188 -8.976562 8.617188 -9.460938 8.515625 -9.890625 C 8.421875 -10.328125 8.363281 -10.679688 8.34375 -10.953125 L 7.859375 -10.796875 C 7.710938 -10.015625 7.535156 -9.097656 7.328125 -8.046875 C 7.117188 -6.992188 6.929688 -5.976562 6.765625 -5 C 6.535156 -3.84375 6.3125 -2.675781 6.09375 -1.5 Z M 8.78125 -15.90625 C 9.25 -15.957031 9.816406 -16.15625 10.484375 -16.5 C 11.160156 -16.84375 11.800781 -17.25 12.40625 -17.71875 C 13.019531 -18.195312 13.546875 -18.691406 13.984375 -19.203125 C 14.429688 -19.722656 14.65625 -20.179688 14.65625 -20.578125 C 14.65625 -20.835938 14.566406 -21.046875 14.390625 -21.203125 C 14.222656 -21.367188 13.984375 -21.492188 13.671875 -21.578125 C 13.367188 -21.660156 13.035156 -21.710938 12.671875 -21.734375 C 12.304688 -21.765625 11.925781 -21.78125 11.53125 -21.78125 C 11.257812 -21.78125 10.984375 -21.773438 10.703125 -21.765625 C 10.421875 -21.753906 10.171875 -21.75 9.953125 -21.75 Z M 8.78125 -15.90625 "/></g></g></g><g fill="#ffffff" fill-opacity="1"><g transform="translate(108.444075, 52.585508)"><g><path d="M 6.25 -0.734375 C 6.03125 -0.734375 5.59375 -0.703125 4.9375 -0.640625 C 4.289062 -0.578125 3.625 -0.503906 2.9375 -0.421875 C 2.25 -0.335938 1.628906 -0.257812 1.078125 -0.1875 C 0.523438 -0.113281 0.226562 -0.0625 0.1875 -0.03125 C 0.425781 -1.082031 0.675781 -2.25 0.9375 -3.53125 C 1.195312 -4.820312 1.457031 -6.171875 1.71875 -7.578125 C 1.988281 -8.992188 2.242188 -10.421875 2.484375 -11.859375 C 2.734375 -13.304688 2.972656 -14.703125 3.203125 -16.046875 C 3.710938 -19.179688 4.222656 -22.40625 4.734375 -25.71875 L 10.46875 -26.625 C 9.90625 -23.34375 9.351562 -20.125 8.8125 -16.96875 C 8.59375 -15.625 8.363281 -14.226562 8.125 -12.78125 C 7.894531 -11.332031 7.664062 -9.898438 7.4375 -8.484375 C 7.207031 -7.066406 6.992188 -5.6875 6.796875 -4.34375 C 6.597656 -3.007812 6.414062 -1.804688 6.25 -0.734375 Z M 6.25 -0.734375 "/></g></g></g><g fill="#ffffff" fill-opacity="1"><g transform="translate(115.864505, 52.585508)"><g><path d="M 16.265625 -9.078125 C 16.265625 -7.703125 16 -6.457031 15.46875 -5.34375 C 14.945312 -4.226562 14.238281 -3.265625 13.34375 -2.453125 C 12.457031 -1.648438 11.40625 -1.023438 10.1875 -0.578125 C 8.976562 -0.140625 7.675781 0.078125 6.28125 0.078125 C 5.300781 0.078125 4.320312 -0.179688 3.34375 -0.703125 C 2.363281 -1.234375 1.421875 -2.078125 0.515625 -3.234375 L 3.234375 -8.5625 C 3.398438 -8.238281 3.65625 -7.910156 4 -7.578125 C 4.34375 -7.253906 4.726562 -6.96875 5.15625 -6.71875 C 5.582031 -6.476562 6.007812 -6.273438 6.4375 -6.109375 C 6.875 -5.953125 7.265625 -5.875 7.609375 -5.875 C 7.898438 -5.875 8.203125 -5.921875 8.515625 -6.015625 C 8.835938 -6.117188 9.132812 -6.269531 9.40625 -6.46875 C 9.675781 -6.664062 9.890625 -6.890625 10.046875 -7.140625 C 10.203125 -7.398438 10.28125 -7.703125 10.28125 -8.046875 C 10.28125 -8.628906 10.085938 -9.171875 9.703125 -9.671875 C 9.328125 -10.179688 8.859375 -10.660156 8.296875 -11.109375 C 7.734375 -11.566406 7.117188 -12.023438 6.453125 -12.484375 C 5.796875 -12.953125 5.191406 -13.441406 4.640625 -13.953125 C 4.097656 -14.472656 3.628906 -15.050781 3.234375 -15.6875 C 2.835938 -16.320312 2.640625 -17.03125 2.640625 -17.8125 C 2.640625 -19.082031 3.019531 -20.269531 3.78125 -21.375 C 4.539062 -22.476562 5.488281 -23.425781 6.625 -24.21875 C 7.769531 -25.019531 9.015625 -25.648438 10.359375 -26.109375 C 11.703125 -26.578125 12.972656 -26.8125 14.171875 -26.8125 C 14.835938 -26.8125 15.460938 -26.734375 16.046875 -26.578125 C 16.640625 -26.421875 17.148438 -26.160156 17.578125 -25.796875 C 18.003906 -25.441406 18.34375 -24.992188 18.59375 -24.453125 C 18.851562 -23.921875 18.984375 -23.25 18.984375 -22.4375 C 18.984375 -22.101562 18.953125 -21.765625 18.890625 -21.421875 C 18.835938 -21.078125 18.785156 -20.707031 18.734375 -20.3125 L 13.40625 -18.765625 C 13.457031 -18.960938 13.5 -19.160156 13.53125 -19.359375 C 13.570312 -19.554688 13.59375 -19.753906 13.59375 -19.953125 C 13.59375 -20.679688 13.460938 -21.210938 13.203125 -21.546875 C 12.941406 -21.878906 12.609375 -22.046875 12.203125 -22.046875 C 12.003906 -22.046875 11.765625 -21.96875 11.484375 -21.8125 C 11.203125 -21.664062 10.921875 -21.476562 10.640625 -21.25 C 10.359375 -21.019531 10.117188 -20.742188 9.921875 -20.421875 C 9.722656 -20.109375 9.625 -19.765625 9.625 -19.390625 C 9.625 -18.804688 9.785156 -18.316406 10.109375 -17.921875 C 10.441406 -17.535156 10.851562 -17.171875 11.34375 -16.828125 C 11.832031 -16.484375 12.363281 -16.132812 12.9375 -15.78125 C 13.519531 -15.425781 14.054688 -14.96875 14.546875 -14.40625 C 15.035156 -13.84375 15.441406 -13.132812 15.765625 -12.28125 C 16.097656 -11.4375 16.265625 -10.367188 16.265625 -9.078125 Z M 16.265625 -9.078125 "/></g></g></g><g clip-path="url(#197230ec50)"><g clip-path="url(#28cc10a67d)"><g clip-path="url(#f1a84a9d9d)"><g clip-path="url(#14f75cb791)"><path fill="#c9edf7" d="M 154 23.59375 C 153.765625 24.257812 153.378906 24.855469 152.90625 25.382812 C 152.527344 25.804688 152.121094 26.199219 151.730469 26.609375 L 140.597656 36.347656 C 139.984375 36.871094 139.371094 37.398438 138.753906 37.921875 C 138.5625 38.085938 138.367188 38.25 138.175781 38.417969 C 136.566406 39.804688 134.957031 41.195312 133.355469 42.585938 C 132.503906 43.328125 131.667969 44.082031 130.820312 44.824219 C 129.210938 46.238281 127.59375 47.644531 125.988281 49.058594 C 125.5625 49.429688 125.164062 49.828125 124.742188 50.195312 C 124.636719 50.285156 124.476562 50.3125 124.34375 50.367188 C 124.101562 50.535156 123.859375 50.703125 123.617188 50.871094 C 123.300781 51.066406 123 51.289062 122.671875 51.453125 C 122.222656 51.671875 121.765625 51.886719 121.285156 52.027344 C 120.621094 52.21875 119.941406 52.367188 119.257812 52.488281 C 118.898438 52.550781 118.523438 52.542969 118.171875 52.390625 C 118.03125 52.195312 117.886719 52 117.746094 51.804688 C 117.8125 51.433594 117.84375 51.050781 117.960938 50.695312 C 118.183594 50.015625 118.421875 49.332031 118.714844 48.679688 C 119.050781 47.933594 119.433594 47.203125 119.984375 46.582031 C 120.023438 46.535156 120.089844 46.515625 120.140625 46.484375 C 120.320312 46.339844 120.5 46.195312 120.679688 46.050781 C 120.753906 45.96875 120.820312 45.878906 120.90625 45.808594 C 122.609375 44.367188 124.324219 42.9375 126.023438 41.488281 C 127.496094 40.230469 128.953125 38.953125 130.417969 37.6875 C 131.035156 37.148438 131.652344 36.613281 132.269531 36.074219 C 133.585938 34.929688 134.910156 33.785156 136.222656 32.636719 C 136.929688 32.019531 137.625 31.390625 138.320312 30.761719 C 138.4375 30.652344 149.148438 21.289062 149.804688 21.011719 C 150.363281 20.773438 150.96875 20.609375 151.597656 20.628906 C 152.261719 20.652344 152.792969 20.957031 153.304688 21.351562 C 153.703125 21.660156 154.039062 22.015625 154.09375 22.527344 C 154.128906 22.878906 154.113281 23.265625 154 23.59375 Z M 154 23.59375 " fill-opacity="1" fill-rule="nonzero"/></g></g></g></g><g clip-path="url(#563f78dcd1)"><g clip-path="url(#3181683f2b)"><g clip-path="url(#431cb13744)"><g clip-path="url(#ef38b885c3)"><path fill="#dccaec" d="M 154 23.59375 C 153.765625 24.257812 153.378906 24.855469 152.90625 25.382812 C 152.527344 25.804688 152.121094 26.199219 151.730469 26.609375 L 142.664062 34.542969 C 142.296875 34.15625 141.1875 33.058594 140.828125 32.664062 C 140.371094 32.15625 139.929688 31.632812 139.46875 31.125 C 139.25 30.882812 139.011719 30.65625 138.777344 30.429688 C 138.734375 30.390625 138.664062 30.378906 138.605469 30.351562 C 138.46875 30.203125 138.5 30.09375 138.652344 29.957031 C 140 28.777344 141.300781 27.542969 142.671875 26.386719 C 144.910156 24.503906 147.074219 22.175781 149.804688 21.011719 C 150.363281 20.773438 150.96875 20.609375 151.597656 20.628906 C 152.261719 20.652344 152.792969 20.957031 153.304688 21.351562 C 153.703125 21.660156 154.039062 22.015625 154.09375 22.527344 C 154.128906 22.878906 154.113281 23.265625 154 23.59375 Z M 154 23.59375 " fill-opacity="1" fill-rule="nonzero"/></g></g></g></g><g clip-path="url(#c58813eadc)"><g clip-path="url(#aa6bff8716)"><g clip-path="url(#ae27b2b231)"><g clip-path="url(#068ca15e26)"><path fill="#5d68b5" d="M 141.925781 33.824219 C 142.753906 33.074219 143.582031 32.324219 144.414062 31.578125 C 144.65625 31.355469 144.90625 31.140625 145.152344 30.921875 C 146.320312 29.882812 147.488281 28.84375 148.652344 27.800781 C 149.292969 27.230469 149.933594 26.664062 150.566406 26.085938 C 150.753906 25.914062 150.929688 25.921875 151.113281 26.078125 C 151.320312 26.253906 151.523438 26.433594 151.730469 26.609375 C 151.828125 26.722656 151.929688 26.832031 152.023438 26.949219 C 152.175781 27.136719 152.175781 27.332031 152 27.5 C 151.777344 27.710938 151.535156 27.902344 151.300781 28.101562 C 149.367188 29.765625 147.429688 31.421875 145.507812 33.09375 C 144.847656 33.664062 144.214844 34.269531 143.578125 34.867188 C 143.03125 35.382812 142.492188 35.90625 141.957031 36.433594 C 141.546875 36.839844 141.125 36.769531 140.738281 36.425781 C 140.699219 36.390625 140.644531 36.371094 140.597656 36.347656 C 140.390625 36.085938 140.183594 35.824219 139.953125 35.53125 C 140.640625 34.9375 141.28125 34.382812 141.925781 33.824219 Z M 124.34375 50.367188 C 124 49.957031 123.65625 49.550781 123.308594 49.144531 C 122.433594 48.113281 121.554688 47.082031 120.679688 46.050781 C 120.5 46.195312 120.320312 46.339844 120.140625 46.484375 C 120.238281 46.621094 120.324219 46.761719 120.429688 46.894531 C 121.410156 48.117188 122.398438 49.335938 123.378906 50.554688 C 123.460938 50.65625 123.539062 50.765625 123.617188 50.871094 C 123.859375 50.703125 124.101562 50.535156 124.34375 50.367188 Z M 117.554688 51.875 C 117.28125 52.117188 117.015625 52.363281 116.75 52.609375 C 116.558594 52.792969 116.585938 53 116.71875 53.1875 C 116.859375 53.386719 117.09375 53.429688 117.261719 53.285156 C 117.585938 53.015625 117.871094 52.691406 118.171875 52.390625 C 118.03125 52.195312 117.886719 52 117.746094 51.804688 C 117.679688 51.828125 117.601562 51.832031 117.554688 51.875 Z M 117.554688 51.875 " fill-opacity="1" fill-rule="nonzero"/></g></g></g></g></svg>